<svg viewBox="43.88 200.00 476.12 136.50" xmlns="http://www.w3.org/2000/svg" role="img" aria-labelledby="title desc">
  <title id="title">Pressmind logo</title>
  <desc id="desc">Vectorized Pressmind logo without a background.</desc>
  <path fill="rgb(13,24,53)" stroke="rgb(13,24,53)" stroke-width="0" opacity="1" d="M 202 254 L 222.5 254 L 233 260.5 L 236 271.5 Q 234.55 279.05 229.5 283 Q 222.76 287.95 210 286 L 210 303 L 202 303 L 202 254 Z M 210 261 L 210 279 L 223 278 Q 229 276 227 267 Q 223 259 210 261 Z " />
<path fill="rgb(13,24,53)" stroke="rgb(13,24,53)" stroke-width="0" opacity="1" d="M 278.5 268 Q 288.43 268.07 292 274.5 Q 295.82 279.64 295 288 L 270.5 288 L 270 289.5 L 274.5 296 L 283.5 297 L 292 294 Q 293.5 299.37 290.5 301 Q 285.17 305.17 273.5 303 L 266 297.5 Q 261.76 293.24 262 284.5 Q 263.47 274.47 270.5 270 L 278.5 268 Z M 279 274 L 276 275 L 270 283 L 287 283 L 287 280 Q 285 275 279 274 Z " />
<path fill="rgb(13,24,53)" stroke="rgb(13,24,53)" stroke-width="0" opacity="1" d="M 311.5 268 Q 318.99 268.01 323 271.5 Q 324.5 278.5 321.5 278 L 312.5 274 L 308 276.5 Q 306.13 281.9 309.5 281 L 324 288.5 L 325 294.5 L 319.5 302 L 303.5 303 L 299 299.5 Q 296.5 292.62 301.5 294 L 311.5 298 L 317 294.5 L 315.5 291 L 304.5 287 L 300 282.5 L 299 276.5 L 304.5 270 L 311.5 268 Z " />
<path fill="rgb(13,24,53)" stroke="rgb(13,24,53)" stroke-width="0" opacity="1" d="M 341.5 268 Q 348.99 268.01 353 271.5 L 352.5 278 Q 348.74 274.26 341.5 274 L 337 277.5 L 338 281 L 348.5 284 L 354 288.5 L 355 294.5 L 354 299 Q 349.16 305.36 334.5 303 L 329 299.5 L 330.5 294 L 337.5 297 L 344.5 297 L 347 292.5 L 334.5 287 L 330 282.5 L 329 277.5 L 334.5 270 L 341.5 268 Z " />
<path fill="rgb(13,24,53)" stroke="rgb(13,24,53)" stroke-width="0" opacity="1" d="M 241 269 L 248 269 L 248 273.5 L 250 272.5 L 251.5 270 L 260 269 L 261 274.5 Q 259.5 277.5 253.5 276 L 249 279.5 L 248 303 L 241 302.5 L 241 269 Z " />
<path fill="rgb(13,24,53)" stroke="rgb(13,24,53)" stroke-width="0" opacity="1" d="M 139.5 293 L 170.5 293 L 174 296.5 L 174 318.5 L 171.5 321 L 169.5 322 L 140.5 322 L 136 320 L 136 295.5 L 137.5 294 L 139.5 293 Z " />
<path fill="rgb(23,64,253)" stroke="rgb(23,64,253)" stroke-width="0" opacity="1" d="M 161.5 212 L 165 213 L 166 216.5 L 165 220 L 167 218.5 L 168 218.5 Q 167.12 221.5 171.5 220 L 173 222.5 L 168 224 L 165 231 L 162.5 232 L 160 226.5 L 162.5 225 L 165.5 227 L 167 223.5 L 165.5 221 Q 162.02 224.52 154.5 224 L 153 220.5 L 155.5 220 Q 161.58 221.25 161 218.5 L 161 216.5 L 162 213.5 L 161.5 212 Z " />
<path fill="rgb(23,64,253)" stroke="rgb(23,64,253)" stroke-width="0" opacity="1" d="M 74.5 226 L 76.5 227 L 78.5 227 L 90.5 226 L 93.5 227 L 94.5 226 L 110.5 226 L 114.5 227 L 125.5 226 L 127.5 226 L 135.5 227 L 138 227.5 L 136 232 L 69.5 232 L 69 229.5 L 70 227 L 74.5 226 Z M 81 228 L 78 230 Q 80 233 88 231 L 90 231 L 90 229 L 81 228 Z M 123 228 Q 120 230 123 231 L 125 230 L 128 231 L 131 229 L 130 228 L 127 229 L 123 228 Z " />
<path fill="rgb(23,64,253)" stroke="rgb(23,64,253)" stroke-width="0" opacity="1" d="M 64 228 L 66 229.5 L 67 233.5 L 63.5 236 L 61 230 Q 65.13 231.33 64 228 Z " />
<path fill="rgb(23,64,253)" stroke="rgb(23,64,253)" stroke-width="0" opacity="1" d="M 144.5 228 L 148.5 236 L 150.5 235 L 150.5 236 L 146.5 239 Q 142.13 237.37 143 230.5 L 144.5 228 Z " />
<path fill="rgb(23,64,253)" stroke="rgb(23,64,253)" stroke-width="0" opacity="1" d="M 58.5 236 L 62 238.5 L 63 240.5 L 63 291.5 L 62 294 L 64 295.5 Q 68.25 297.75 63.5 300 L 62 300.5 L 63 302.5 L 62 302.5 L 58 297.5 L 60 297 L 62 288 L 59 289.5 L 57.5 292 L 57 237.5 L 58.5 236 Z M 59 259 L 59 271 L 60 268 L 59 259 Z " />
<path fill="rgb(23,64,253)" stroke="rgb(23,64,253)" stroke-width="0" opacity="1" d="M 169.5 246 L 174 249.5 L 171.5 250 L 166.5 252 L 166 247 L 169.5 246 Z " />
<path fill="rgb(23,64,253)" stroke="rgb(23,64,253)" stroke-width="0" opacity="1" d="M 146 247 L 152 247 L 152 249 Q 145.71 247.5 144 251.5 L 145 254.5 L 141.5 254 L 138 253 L 137.5 251 L 136 251.5 L 137.5 248 L 143.5 250 L 146 249 L 146 247 Z " />
<path fill="rgb(23,64,253)" stroke="rgb(23,64,253)" stroke-width="0" opacity="1" d="M 75.5 251 L 85.5 253 L 95.5 251 L 96.5 252 L 109.5 252 L 111.5 252 L 115.5 253 L 121.5 251 L 125 252.5 L 123.5 257 L 122 255.5 L 122.5 254 L 119 255.5 L 118.5 257 L 99 257 Q 97.65 253.33 103.5 255 L 103.5 254 Q 96.75 252.25 95 255.5 L 94.5 257 L 81.5 257 L 80.5 254 L 78 254 Q 79.33 258.13 76 257 L 75.5 251 Z " />
<path fill="rgb(23,64,253)" stroke="rgb(23,64,253)" stroke-width="0" opacity="1" d="M 136.5 253 L 137 256 Q 140.75 254.5 140 257.5 L 141 261.5 L 138.5 262 L 137 262.5 L 137 272.5 L 138 272.5 L 140 269.5 L 141.5 270 Q 145.67 268.88 144 273 L 141.5 272 L 140 275.5 L 141 277.5 L 141.5 280 L 148.5 282 L 150 281.5 L 148 285.5 L 168 286.5 L 139.5 287 L 139.5 286 Q 143.67 287.31 142 282.5 L 141 280 Q 135.8 277.92 137 282.5 L 136 282.5 L 136.5 253 Z " />
<path fill="rgb(23,64,253)" stroke="rgb(23,64,253)" stroke-width="0" opacity="1" d="M 422.5 253 L 424.5 253 L 427 253.5 L 424 254.5 L 430 259.5 L 428.5 262 L 426 261 L 424.5 258 L 420.5 259 L 420.5 256 L 422 255.5 L 422.5 253 Z " />
<path fill="rgb(23,64,253)" stroke="rgb(23,64,253)" stroke-width="0" opacity="1" d="M 506.5 254 L 507 293.5 L 508 294.5 L 506.5 301 Q 504.65 294.35 496 294.5 L 499 292.5 L 498.5 291 L 503.5 292 L 506 291.5 L 505.5 286 L 504 286.5 Q 503 281.5 506 282.5 L 506 277 L 504 276.5 L 506 276 L 506 271 L 504 269.5 L 506 269.5 Q 507.25 263.42 504.5 264 L 502 265 L 500.5 268 L 500 262 L 503 260.5 L 506.5 254 Z " />
<path fill="rgb(23,64,253)" stroke="rgb(23,64,253)" stroke-width="0" opacity="1" d="M 78.5 264 Q 86.75 261.75 89 265.5 L 76 269 Q 74.13 264.2 77.5 265 L 78.5 264 Z " />
<path fill="rgb(23,64,253)" stroke="rgb(23,64,253)" stroke-width="0" opacity="1" d="M 96 264 L 108.5 265 L 114 264 L 112.5 269 L 107 267.5 Q 107.87 264.5 103.5 266 L 101.5 268 L 91 269 L 92.5 267 L 94.5 267 L 97 266.5 L 96 264 Z " />
<path fill="rgb(23,64,253)" stroke="rgb(23,64,253)" stroke-width="0" opacity="1" d="M 455.5 268 L 456 270.5 Q 456.87 273.5 452.5 272 L 450.5 269 L 452.5 269 L 455.5 268 Z " />
<path fill="rgb(23,64,253)" stroke="rgb(23,64,253)" stroke-width="0" opacity="1" d="M 487.5 268 L 491 269.5 L 487 270 L 485.5 272 L 485.5 273 Q 488.83 271.88 488 274.5 L 486 275.5 L 483.5 272 L 483 274.5 L 484.5 277 L 483 278.5 L 482 278.5 L 480 274 L 478 273.5 L 479 271 L 485.5 270 L 487.5 268 Z " />
<path fill="rgb(23,64,253)" stroke="rgb(23,64,253)" stroke-width="0" opacity="1" d="M 383.5 269 L 389 272.5 L 387.5 272 L 383 274 Q 384.5 277.75 381.5 277 L 379 275.5 L 383 274 L 383.5 269 Z " />
<path fill="rgb(23,64,253)" stroke="rgb(23,64,253)" stroke-width="0" opacity="1" d="M 396.5 269 L 399.5 271 L 399.5 269 Q 405.35 266.92 404 271.5 L 397.5 274 L 394 271.5 L 396.5 269 Z " />
<path fill="rgb(23,64,253)" stroke="rgb(23,64,253)" stroke-width="0" opacity="1" d="M 437 269 L 445 269 L 445 273.5 L 444 273.5 Q 445.13 270.17 442.5 271 L 441 273.5 L 446 276 L 447.5 272 L 450 273.5 Q 451.12 276.83 448.5 276 L 445 278.5 L 445.5 280 L 443.5 281 L 438.5 274 L 437 274.5 L 437 269 Z " />
<path fill="rgb(23,64,253)" stroke="rgb(23,64,253)" stroke-width="0" opacity="1" d="M 460.5 269 L 466 273.5 L 462 275 L 460.5 278 Q 455.92 279.2 458 274 L 460 272.5 L 461 270.5 L 460.5 269 Z " />
<path fill="rgb(23,64,253)" stroke="rgb(23,64,253)" stroke-width="0" opacity="1" d="M 492 270 Q 497.56 269 499 273.5 L 497.5 275 L 498.5 277 L 501 278.5 L 499.5 281 Q 493.5 278 495.5 275 L 493.5 276 L 492 270 Z " />
<path fill="rgb(23,64,253)" stroke="rgb(23,64,253)" stroke-width="0" opacity="1" d="M 362.5 272 L 364.5 275 L 368 276 L 370 279.5 L 368.5 280 L 364.5 278 L 362.5 281 L 361 275.5 L 362.5 272 Z " />
<path fill="rgb(23,64,253)" stroke="rgb(23,64,253)" stroke-width="0" opacity="1" d="M 405.5 272 L 412 273 L 413 276.5 L 412 278.5 L 413 279.5 L 413 292.5 L 412 292.5 L 408.5 288 L 410.5 285 Q 413.5 285.37 412 279 L 408.5 278 L 407 281 L 405 279.5 L 404.5 277 L 403 276.5 L 406 276 L 405.5 272 Z " />
<path fill="rgb(23,64,253)" stroke="rgb(23,64,253)" stroke-width="0" opacity="1" d="M 422 272 L 425.5 274 L 429 273.5 L 428.5 302 L 428 298 L 424 299.5 L 422.5 302 Q 419.88 302.83 421 299.5 L 422 297.5 L 421 291.5 L 422 286.5 L 421 278.5 L 422.5 276 L 425.5 281 L 426 276.5 L 425 274 Q 420.88 275.33 422 272 Z " />
<path fill="rgb(23,64,253)" stroke="rgb(23,64,253)" stroke-width="0" opacity="1" d="M 391.5 273 Q 395.67 271.69 394 276.5 L 390 278.5 L 391 279.5 L 391 302 L 384 301 L 384 297 Q 387 298 386 295 L 383 293.5 Q 381.88 290.17 384.5 291 Q 386.25 294.75 388 291.5 L 387 286 Q 390.75 287.5 390 284.5 L 387 283 L 386 278.5 L 389.5 274 L 391.5 273 Z " />
<path fill="rgb(23,64,253)" stroke="rgb(23,64,253)" stroke-width="0" opacity="1" d="M 88.5 275 L 93 276 L 91.5 278 Q 89.61 281.75 83 280 L 84 276 L 88.5 275 Z " />
<path fill="rgb(23,64,253)" stroke="rgb(23,64,253)" stroke-width="0" opacity="1" d="M 474 277 L 481 282.5 L 480 288.5 L 480.5 290 L 477 291 L 478 293.5 L 474 295 L 472 288.5 L 473.5 289 L 476 287.5 L 477 282 Q 473.25 283.5 474 280.5 L 474 278.5 L 474 277 Z " />
<path fill="rgb(23,64,253)" stroke="rgb(23,64,253)" stroke-width="0" opacity="1" d="M 169.5 279 L 174 284.5 L 171.5 286 L 167 280 L 169.5 279 Z " />
<path fill="rgb(23,64,253)" stroke="rgb(23,64,253)" stroke-width="0" opacity="1" d="M 437.5 279 Q 440.89 281.61 440 288.5 L 439 288.5 L 438.5 286 L 438 291 L 440 292.5 L 441 292.5 Q 439.25 284.58 442.5 285 L 445 283.5 L 445 296.5 L 442.5 297 L 438 300.5 L 437.5 302 L 437.5 279 Z " />
<path fill="rgb(23,64,253)" stroke="rgb(23,64,253)" stroke-width="0" opacity="1" d="M 467.5 280 L 468 302.5 L 467 302.5 L 466.5 301 L 460 302 L 461.5 298 L 465 299 L 462.5 293 L 461 293.5 L 460 291.5 L 461 286 Q 465.13 287.67 464 283.5 L 465 281 L 467.5 280 Z M 467 287 L 466 289 L 464 288 Q 460 287 462 292 L 467 295 L 467 287 Z " />
<path fill="rgb(23,64,253)" stroke="rgb(23,64,253)" stroke-width="0" opacity="1" d="M 367.5 281 L 369 285.5 L 368 286.5 L 368 299.5 L 369 302 L 365 302 L 363.5 300 L 361 301.5 L 362.5 298 Q 365.5 298.75 364 295 L 362 293.5 L 361 289.5 L 362 287 Q 365.75 288.5 365 285.5 L 367.5 281 Z " />
<path fill="rgb(23,64,253)" stroke="rgb(23,64,253)" stroke-width="0" opacity="1" d="M 407.5 291 L 411 293 L 413 301.5 L 412 301.5 L 408.5 297 Q 405.37 297.37 407.5 291 Z " />
<path fill="rgb(23,64,253)" stroke="rgb(23,64,253)" stroke-width="0" opacity="1" d="M 483 295 L 488 297.5 L 486.5 299 L 483 300.5 L 482.5 303 L 479 300.5 L 483 295 Z " />
<path fill="rgb(23,64,253)" stroke="rgb(23,64,253)" stroke-width="0" opacity="1" d="M 492.5 296 L 494.5 297 L 496 296.5 Q 495.17 299.13 498.5 298 L 500 297.5 L 496 300.5 L 495.5 302 L 495 300 Q 492 301.25 493 297.5 L 492.5 296 Z " />
<path fill="rgb(23,64,253)" stroke="rgb(23,64,253)" stroke-width="0" opacity="1" d="M 73.5 300 L 75 300.5 L 75 311.5 L 77 310.5 L 78.5 308 L 80 306.5 L 81 306.5 L 80 308.5 L 82 312.5 L 78 315.5 L 76.5 318 L 72 321.5 Q 72.75 324.5 69 323 L 69 305.5 L 67.5 305 L 66.5 303 L 73.5 300 Z " />
<path fill="rgb(161,181,239)" stroke="rgb(161,181,239)" stroke-width="0" opacity="1" d="M 69.5 232 L 139 232.5 L 69.5 233 L 69.5 232 Z " />
<path fill="rgb(161,181,239)" stroke="rgb(161,181,239)" stroke-width="0" opacity="1" d="M 76.5 250 L 123.5 250 L 125 251.5 L 123.5 251 L 76.5 251 L 76.5 250 Z " />
<path fill="rgb(161,181,239)" stroke="rgb(161,181,239)" stroke-width="0" opacity="1" d="M 499 252 L 508 252.5 L 508 293.5 L 507 293.5 L 507 253.5 L 500 253 L 499.5 274 L 499 252 Z " />
<path fill="rgb(161,181,239)" stroke="rgb(161,181,239)" stroke-width="0" opacity="1" d="M 201.5 254 L 202 302.5 L 201 302.5 L 201.5 254 Z " />
<path fill="rgb(161,181,239)" stroke="rgb(161,181,239)" stroke-width="0" opacity="1" d="M 240.5 269 L 241 302.5 L 240 302.5 L 240.5 269 Z " />
<path fill="rgb(161,181,239)" stroke="rgb(161,181,239)" stroke-width="0" opacity="1" d="M 429.5 270 L 430 302.5 L 429 302.5 L 429.5 270 Z " />
<path fill="rgb(161,181,239)" stroke="rgb(161,181,239)" stroke-width="0" opacity="1" d="M 413.5 278 L 414 302.5 L 413 302.5 L 413.5 278 Z " />
<path fill="rgb(161,181,239)" stroke="rgb(161,181,239)" stroke-width="0" opacity="1" d="M 405.5 281 L 406 302.5 L 405 302.5 L 405.5 281 Z " />
<path fill="rgb(161,181,239)" stroke="rgb(161,181,239)" stroke-width="0" opacity="1" d="M 248.5 284 L 249 302.5 L 248 302.5 L 248.5 284 Z " />
<path fill="rgb(161,181,239)" stroke="rgb(161,181,239)" stroke-width="0" opacity="1" d="M 270 288 L 295 288.5 L 271.5 289 L 270.5 290 L 270 288 Z " />
<path fill="rgb(161,181,239)" stroke="rgb(161,181,239)" stroke-width="0" opacity="1" d="M 95.5 293 L 126.5 293 L 130 296.5 L 130 318.5 L 127.5 321 L 125.5 322 L 96.5 322 L 92 318.5 L 91 298.5 L 93.5 294 L 95.5 293 Z " />
<path fill="rgb(14,56,253)" stroke="rgb(14,56,253)" stroke-width="0" opacity="1" d="M 165.5 221 L 167 224.5 L 165.5 227 L 162.5 225 L 160 226.5 L 160.5 228 Q 154.5 225.5 158.5 223 Q 163.8 223.8 165.5 221 Z " />
<path fill="rgb(14,56,253)" stroke="rgb(14,56,253)" stroke-width="0" opacity="1" d="M 138.5 227 L 144 228 L 142.5 234 L 136 232 L 138.5 227 Z " />
<path fill="rgb(14,56,253)" stroke="rgb(14,56,253)" stroke-width="0" opacity="1" d="M 80.5 228 L 90 229 L 89.5 231 L 87.5 231 Q 80 233 78 229.5 L 80.5 228 Z " />
<path fill="rgb(14,56,253)" stroke="rgb(14,56,253)" stroke-width="0" opacity="1" d="M 122.5 228 L 126.5 229 L 129.5 228 L 131 228.5 L 127.5 231 L 124.5 230 L 122.5 231 Q 119.5 229.5 122.5 228 Z " />
<path fill="rgb(14,56,253)" stroke="rgb(14,56,253)" stroke-width="0" opacity="1" d="M 146.5 230 L 150 234.5 L 149.5 236 L 151 236.5 L 148.5 240 L 146 239.5 Q 151 237.5 148 235.5 L 146.5 230 Z " />
<path fill="rgb(14,56,253)" stroke="rgb(14,56,253)" stroke-width="0" opacity="1" d="M 60.5 232 L 62 233.5 L 63.5 236 L 65 235.5 L 62.5 240 L 60.5 237 L 58 235.5 L 60.5 232 Z " />
<path fill="rgb(14,56,253)" stroke="rgb(14,56,253)" stroke-width="0" opacity="1" d="M 140.5 246 L 169 246.5 L 166 247 L 166.5 252 L 172.5 249 L 174 250.5 L 174 283.5 L 171 281.5 L 169.5 279 L 167 280 L 172 286.5 L 168.5 287 L 148 285.5 L 150 281.5 L 147.5 281 L 141 280 L 142 286 L 138.5 287 L 137.5 285 L 136 285.5 L 137 280 L 141 279.5 L 141 277.5 L 140 274.5 L 141.5 272 L 144 273 Q 145.67 268.88 141.5 270 L 140 269.5 L 138 272.5 L 137 272.5 L 137 262.5 L 138.5 262 L 141 261.5 L 140 256 Q 135.88 257.67 137 253.5 L 136 250.5 L 136.5 249 L 138 253 L 142.5 255 L 145 254.5 L 144 251.5 L 145.5 249 L 143.5 250 L 138 249 L 138.5 247 L 140.5 248 L 140.5 246 Z " />
<path fill="rgb(14,56,253)" stroke="rgb(14,56,253)" stroke-width="0" opacity="1" d="M 80.5 251 L 95 251.5 L 82.5 253 L 80.5 251 Z " />
<path fill="rgb(14,56,253)" stroke="rgb(14,56,253)" stroke-width="0" opacity="1" d="M 96.5 251 L 110 251.5 L 96.5 252 L 96.5 251 Z " />
<path fill="rgb(14,56,253)" stroke="rgb(14,56,253)" stroke-width="0" opacity="1" d="M 423.5 253 L 426.5 254 L 429 254.5 L 430 258.5 L 426.5 256 L 423.5 253 Z " />
<path fill="rgb(14,56,253)" stroke="rgb(14,56,253)" stroke-width="0" opacity="1" d="M 503 253 L 507 253.5 L 501.5 262 Q 498.12 262.9 500 257.5 L 503 253 Z " />
<path fill="rgb(14,56,253)" stroke="rgb(14,56,253)" stroke-width="0" opacity="1" d="M 96.5 254 L 104 254.5 L 99 255 Q 100.2 258.67 95 257 L 96.5 254 Z " />
<path fill="rgb(14,56,253)" stroke="rgb(14,56,253)" stroke-width="0" opacity="1" d="M 420.5 257 L 426 259.5 L 427.5 261 L 427.5 262 Q 422 263 421 259.5 L 420.5 257 Z " />
<path fill="rgb(14,56,253)" stroke="rgb(14,56,253)" stroke-width="0" opacity="1" d="M 58.5 259 L 60 267.5 L 58.5 271 L 58.5 259 Z " />
<path fill="rgb(14,56,253)" stroke="rgb(14,56,253)" stroke-width="0" opacity="1" d="M 76.5 263 L 113 263.5 L 103.5 265 L 96 264 L 97 266.5 L 94.5 267 L 92.5 267 L 90.5 269 L 80.5 269 L 81.5 267 L 89 265.5 Q 86.75 261.75 78.5 264 L 76 265 L 75.5 268 L 75 264.5 L 76.5 263 Z " />
<path fill="rgb(14,56,253)" stroke="rgb(14,56,253)" stroke-width="0" opacity="1" d="M 504.5 264 Q 507.25 263.42 506 269.5 L 504 269.5 L 506 271 L 506 276 L 504 276.5 L 506 277 L 506 282.5 Q 503 281.5 504 286.5 L 506 286.5 L 505.5 292 L 503.5 292 L 499 290.5 L 501 285.5 L 499 281.5 L 501 278.5 L 497 275.5 L 501 274 L 500 268.5 L 502 265 L 504.5 264 Z " />
<path fill="rgb(14,56,253)" stroke="rgb(14,56,253)" stroke-width="0" opacity="1" d="M 103.5 266 Q 107.88 264.5 107 267.5 L 107.5 269 L 96 268.5 Q 101.83 269.33 103.5 266 Z " />
<path fill="rgb(14,56,253)" stroke="rgb(14,56,253)" stroke-width="0" opacity="1" d="M 375.5 269 L 380.5 271 L 383 269.5 Q 381.12 274.9 384.5 274 L 387.5 272 L 389 274.5 L 386 279.5 L 387 283 L 390 284.5 Q 390.75 287.5 387 286 L 387 290.5 L 386.5 293 L 383 291 L 382 277.5 L 383 274 L 375.5 275 L 374 271.5 L 375.5 269 Z " />
<path fill="rgb(14,56,253)" stroke="rgb(14,56,253)" stroke-width="0" opacity="1" d="M 404 269 L 411 272.5 L 406 273 Q 407.75 277.5 402.5 276 L 395.5 275 L 394 275.5 Q 395.13 272.17 392.5 273 L 394.5 270 L 395.5 273 L 400.5 274 L 404 271.5 L 404 269 Z " />
<path fill="rgb(14,56,253)" stroke="rgb(14,56,253)" stroke-width="0" opacity="1" d="M 451.5 269 L 452.5 272 Q 456.87 273.5 456 270.5 L 459.5 269 L 461 271.5 L 460 274 L 456.5 276 L 450 275 L 448.5 272 L 446.5 273 L 447.5 271 L 451.5 269 Z " />
<path fill="rgb(14,56,253)" stroke="rgb(14,56,253)" stroke-width="0" opacity="1" d="M 491.5 269 L 493 269.5 L 492 273.5 L 492.5 275 L 488.5 275 Q 489.48 272.25 485.5 273 L 486 274.5 L 484.5 276 L 483 272.5 L 485.5 272 L 487 270 L 490.5 270 L 491.5 269 Z " />
<path fill="rgb(14,56,253)" stroke="rgb(14,56,253)" stroke-width="0" opacity="1" d="M 361 270 L 367.5 272 L 369 271.5 L 369.5 274 L 370.5 272 L 371 275 L 373 275.5 L 370 277.5 L 369.5 279 L 368 276 L 363 273.5 L 362.5 272 L 361.5 275 L 361 270 Z " />
<path fill="rgb(14,56,253)" stroke="rgb(14,56,253)" stroke-width="0" opacity="1" d="M 422.5 270 L 429 270 L 429 272.5 L 425 274.5 L 426 280.5 L 425 280.5 L 422.5 276 L 421.5 278 L 421 271.5 L 422.5 270 Z " />
<path fill="rgb(14,56,253)" stroke="rgb(14,56,253)" stroke-width="0" opacity="1" d="M 478.5 272 L 478.5 274 L 480 275.5 L 482 279.5 L 480.5 282 L 475 275.5 L 478.5 272 Z " />
<path fill="rgb(14,56,253)" stroke="rgb(14,56,253)" stroke-width="0" opacity="1" d="M 438.5 274 L 443.5 281 L 445 280.5 L 442.5 285 Q 439.25 284.58 441 292.5 L 440 292.5 L 438 291 L 438 286.5 L 439 286.5 L 439.5 289 L 440 283.5 L 437 275.5 L 438.5 274 Z " />
<path fill="rgb(14,56,253)" stroke="rgb(14,56,253)" stroke-width="0" opacity="1" d="M 464.5 274 L 466 275.5 L 467 281 L 465 282.5 L 464 286 Q 459.13 284.2 461 290.5 L 460 290.5 L 459 278.5 L 462 276.5 L 463.5 275 L 464.5 274 Z " />
<path fill="rgb(14,56,253)" stroke="rgb(14,56,253)" stroke-width="0" opacity="1" d="M 76.5 275 L 88 275.5 L 84 276 L 83 280 Q 90.24 281.17 93 278 L 91.5 276 L 91.5 275 L 97 275.5 L 95 276.5 L 97 277 L 98 279.5 L 96.5 281 L 76.5 281 L 75 276.5 L 76.5 275 Z " />
<path fill="rgb(14,56,253)" stroke="rgb(14,56,253)" stroke-width="0" opacity="1" d="M 412.5 277 L 413 278.5 L 412 285 L 408 287.5 L 410 288 L 410 291 L 412 292.5 L 413 296.5 L 411 295.5 Q 412.13 292.17 409.5 293 L 407 291.5 Q 405.75 297.58 408.5 297 L 413 302.5 L 406.5 303 L 406.5 302 L 409 301.5 L 407.5 299 L 406.5 301 L 406 281.5 L 408.5 278 L 412 279 L 412.5 277 Z " />
<path fill="rgb(14,56,253)" stroke="rgb(14,56,253)" stroke-width="0" opacity="1" d="M 364.5 278 L 369 280.5 L 368.5 284 L 367.5 281 L 365 287 Q 361.25 285.5 362 288.5 L 361 288.5 L 361.5 280 L 363 280.5 L 364.5 278 Z " />
<path fill="rgb(14,56,253)" stroke="rgb(14,56,253)" stroke-width="0" opacity="1" d="M 473.5 280 L 474 282 Q 478.5 280.25 477 285.5 L 474.5 289 L 472 287.5 L 473.5 280 Z " />
<path fill="rgb(14,56,253)" stroke="rgb(14,56,253)" stroke-width="0" opacity="1" d="M 368.5 286 L 369 299.5 L 368 299.5 L 368.5 286 Z " />
<path fill="rgb(14,56,253)" stroke="rgb(14,56,253)" stroke-width="0" opacity="1" d="M 466.5 287 L 467 295 L 464.5 294 L 464 295.5 L 465 299 L 461.5 298 L 460 298.5 L 460.5 292 L 461.5 294 L 462 291.5 Q 460.5 287.13 463.5 288 L 466 289 L 466.5 287 Z " />
<path fill="rgb(14,56,253)" stroke="rgb(14,56,253)" stroke-width="0" opacity="1" d="M 60.5 288 Q 63.5 287.12 62 291.5 L 63 293.5 L 62 293.5 L 61.5 292 L 60 297 L 58 296.5 L 58.5 295 Q 55.88 295.83 57 292.5 L 60.5 288 Z " />
<path fill="rgb(14,56,253)" stroke="rgb(14,56,253)" stroke-width="0" opacity="1" d="M 479.5 290 L 481 291.5 L 483 296.5 L 478.5 300 L 476 299 L 475 295.5 L 478 293.5 L 477 291 L 479.5 290 Z " />
<path fill="rgb(14,56,253)" stroke="rgb(14,56,253)" stroke-width="0" opacity="1" d="M 383.5 294 L 386 295 Q 387 298 384 297 L 384 301 L 391 302.5 L 383 303 L 383.5 294 Z " />
<path fill="rgb(14,56,253)" stroke="rgb(14,56,253)" stroke-width="0" opacity="1" d="M 495.5 295 L 500.5 295 L 507 301.5 Q 507.5 304.5 500.5 303 L 500 300.5 L 499.5 297 L 496 298 L 495.5 296 L 493 297 L 493 300 Q 496 299 495 302 L 492.5 303 Q 490.5 299 488.5 303 L 484.5 302 L 483 302.5 L 484.5 299 L 486.5 299 L 488 297 L 492.5 297 L 495.5 295 Z " />
<path fill="rgb(14,56,253)" stroke="rgb(14,56,253)" stroke-width="0" opacity="1" d="M 442.5 297 L 445 297.5 L 442 302 L 444 302.5 L 437.5 303 L 438 301.5 L 439.5 299 L 442.5 297 Z " />
<path fill="rgb(14,56,253)" stroke="rgb(14,56,253)" stroke-width="0" opacity="1" d="M 65.5 298 L 68.5 300 L 73.5 299 L 72.5 301 L 65.5 304 L 63 303 L 62.5 301 L 61 301.5 L 65.5 298 Z " />
<path fill="rgb(14,56,253)" stroke="rgb(14,56,253)" stroke-width="0" opacity="1" d="M 425.5 298 Q 429.67 296.69 428 301.5 L 428.5 303 L 421 302.5 L 424 300.5 L 425.5 298 Z " />
</svg>
